<?xml version="1.0" standalone="no"?>
<!DOCTYPE svg PUBLIC "-//W3C//DTD SVG 20010904//EN"
 "http://www.w3.org/TR/2001/REC-SVG-20010904/DTD/svg10.dtd">
<svg version="1.0" xmlns="http://www.w3.org/2000/svg"
 width="1080.000000pt" height="1080.000000pt" viewBox="0 0 1080.000000 1080.000000"
 preserveAspectRatio="xMidYMid meet">

<g transform="translate(0.000000,1080.000000) scale(0.100000,-0.100000)"
fill="#000000" stroke="none">
<path d="M5340 8532 c0 -14 329 -336 337 -329 7 8 -315 337 -329 337 -5 0 -8
-3 -8 -8z"/>
<path d="M2970 8514 c0 -5 77 -86 170 -179 94 -93 170 -163 170 -155 0 9 -60
74 -132 145 -169 165 -208 201 -208 189z"/>
<path d="M4220 8413 c0 -15 329 -337 337 -330 4 4 -27 42 -68 83 -107 109
-269 258 -269 247z"/>
<path d="M5240 8382 c0 -14 325 -332 340 -332 8 0 -62 77 -155 170 -158 159
-185 182 -185 162z"/>
<path d="M5640 8381 c0 -12 333 -331 339 -325 6 6 -320 334 -331 334 -5 0 -8
-4 -8 -9z"/>
<path d="M3055 8180 c93 -93 171 -167 174 -164 7 6 -321 334 -334 334 -5 0 66
-76 160 -170z"/>
<path d="M4167 8223 c-3 -5 70 -85 162 -177 93 -93 171 -164 174 -159 3 5 -70
85 -162 177 -93 93 -171 164 -174 159z"/>
<path d="M1918 8160 c9 -16 20 -30 25 -30 4 0 7 -4 7 -9 0 -5 26 -50 58 -100
31 -50 64 -104 72 -119 9 -15 37 -60 63 -100 26 -40 47 -77 47 -82 0 -6 3 -10
8 -10 4 0 18 -20 32 -45 14 -25 28 -45 32 -45 5 0 8 -4 8 -10 0 -5 32 -59 70
-120 39 -61 70 -113 70 -115 0 -5 61 -96 70 -105 3 -3 12 -18 20 -35 8 -16 17
-32 20 -35 3 -3 28 -41 55 -85 28 -44 55 -87 60 -96 9 -14 56 -92 90 -147 6
-9 28 -44 49 -77 21 -33 45 -71 53 -84 l15 -23 33 48 c18 27 56 64 83 83 l50
33 -34 52 c-19 28 -37 58 -41 66 -4 8 -9 17 -13 20 -3 3 -17 23 -29 45 -39 66
-95 150 -103 153 -5 2 -8 9 -8 16 0 6 -15 34 -32 62 -18 28 -38 59 -45 70 -11
17 -54 87 -86 139 -7 11 -15 22 -18 25 -3 3 -19 28 -34 55 -16 28 -39 64 -52
81 -13 17 -23 34 -23 39 0 4 -13 24 -28 44 -15 20 -33 47 -40 61 -17 34 -32
57 -69 112 -59 84 -89 78 404 78 l436 0 -106 108 -107 107 -539 3 -540 3 17
-31z"/>
<path d="M3150 8182 c0 -4 29 -37 65 -72 66 -66 81 -100 53 -128 -9 -9 4 -12
60 -12 54 0 72 3 72 13 0 22 34 47 63 47 36 0 104 -28 111 -46 5 -12 66 -14
388 -14 306 1 379 3 361 13 -12 7 -22 16 -22 20 0 4 -43 48 -95 97 l-96 90
-365 0 -366 0 -34 -36 c-37 -39 -48 -38 -108 12 -27 23 -87 33 -87 16z"/>
<path d="M4300 8182 c0 -4 47 -54 103 -110 l104 -102 616 0 c483 0 618 3 624
13 19 29 86 69 119 70 l34 1 -61 62 c-34 34 -70 65 -80 67 -10 3 -30 -3 -43
-14 -31 -24 -53 -24 -91 1 -29 19 -85 28 -85 13 0 -4 20 -28 44 -53 25 -25 46
-53 48 -62 4 -23 -33 -78 -53 -78 -8 0 -59 44 -113 98 l-97 97 -401 3 c-221 1
-408 0 -416 -3 -10 -4 -4 -15 22 -41 41 -41 45 -65 16 -94 -34 -34 -57 -24
-145 60 -67 65 -89 80 -114 80 -17 0 -31 -4 -31 -8z"/>
<path d="M5940 8182 c0 -4 20 -28 45 -52 27 -27 45 -53 45 -67 0 -23 -32 -63
-50 -63 -5 0 -10 -7 -10 -15 0 -13 146 -15 1255 -15 1025 0 1255 -2 1255 -13
0 -7 -14 -35 -32 -63 -36 -55 -39 -59 -88 -139 -19 -32 -42 -67 -50 -79 -13
-20 -49 -78 -93 -151 -7 -11 -15 -22 -18 -25 -3 -3 -26 -38 -50 -78 -24 -40
-51 -84 -59 -96 -8 -13 -28 -45 -44 -72 -16 -27 -36 -56 -43 -66 -13 -14 -11
-17 16 -23 63 -14 151 -70 162 -103 3 -9 10 -3 19 15 8 15 17 30 20 33 3 3 43
66 89 140 46 74 91 146 100 160 27 42 66 105 114 185 7 11 15 22 18 25 3 3 25
37 48 75 23 39 67 108 97 155 30 47 57 92 61 100 4 8 9 17 13 20 4 3 26 37 49
75 23 39 53 87 67 108 l24 37 -1480 0 c-814 0 -1480 -4 -1480 -8z"/>
<path d="M5833 7968 c-32 -23 -63 -72 -63 -101 0 -23 75 -70 99 -62 12 3 37 1
56 -6 19 -7 37 -10 41 -6 13 13 -19 99 -55 148 -20 27 -38 49 -41 49 -3 0 -20
-10 -37 -22z"/>
<path d="M3451 7934 c-20 -44 -24 -135 -10 -199 7 -33 13 -65 12 -72 -1 -18
28 -24 86 -19 59 5 105 29 134 68 l20 27 -28 53 c-38 72 -65 101 -81 87 -9 -7
-22 2 -50 36 -43 51 -66 56 -83 19z"/>
<path d="M2720 7875 c0 -13 328 -341 334 -334 3 3 -71 81 -164 174 -94 94
-170 165 -170 160z"/>
<path d="M3085 7710 c93 -93 174 -170 180 -170 5 0 -67 77 -160 170 -93 94
-174 170 -180 170 -5 0 67 -76 160 -170z"/>
<path d="M4763 7828 c-37 -26 -63 -67 -63 -97 0 -28 71 -75 99 -66 12 3 37 1
56 -6 19 -7 37 -10 41 -6 13 13 -19 99 -55 148 -20 27 -38 49 -41 49 -3 0 -20
-10 -37 -22z"/>
<path d="M2746 7706 c19 -30 101 -119 180 -197 158 -157 169 -178 118 -218
l-26 -21 76 -120 c42 -67 76 -125 76 -131 0 -5 3 -9 8 -9 4 0 16 -16 26 -35
23 -42 47 -40 84 6 29 35 143 111 202 132 55 21 149 22 175 3 17 -12 29 -5
119 63 269 205 572 318 936 351 179 17 1008 7 1285 -14 322 -25 603 -62 845
-112 269 -56 789 -193 852 -225 14 -8 30 13 96 118 44 71 127 203 185 296
l106 167 -1028 0 c-889 0 -1030 -2 -1034 -14 -9 -22 -79 -38 -112 -26 -15 6
-31 8 -36 5 -12 -8 -89 14 -89 25 0 6 -158 10 -420 10 l-420 0 10 -26 c13 -33
13 -100 0 -124 -10 -19 -83 -45 -99 -36 -4 3 -32 7 -61 10 -39 4 -68 15 -107
41 -54 36 -69 64 -61 110 l5 25 -438 0 -439 0 0 -31 c0 -41 -50 -103 -104
-131 -56 -29 -189 -37 -234 -14 -20 10 -34 26 -37 44 -4 15 -11 46 -16 70 -5
24 -7 47 -4 53 4 5 -42 9 -117 8 -75 0 -115 -3 -103 -9 11 -4 55 -44 98 -88
66 -68 77 -85 77 -115 0 -38 -12 -52 -53 -62 -27 -7 -39 3 -170 134 -78 77
-149 141 -159 141 -11 0 9 -24 55 -66 108 -99 117 -111 117 -149 0 -36 -28
-65 -63 -65 -21 0 -298 259 -291 272 3 4 -6 8 -21 8 l-25 0 36 -54z m575 -248
c39 -32 91 -110 105 -157 22 -75 16 -129 -18 -154 -26 -19 -34 -20 -116 -10
-73 8 -96 15 -128 38 -57 42 -64 54 -64 104 0 97 82 191 165 191 23 0 48 -6
56 -12z"/>
<path d="M3222 7371 c-31 -29 -52 -67 -52 -96 0 -22 87 -70 103 -56 9 7 21 6
41 -4 56 -29 68 -13 44 56 -13 39 -78 128 -93 129 -6 0 -25 -13 -43 -29z"/>
<path d="M2670 7662 c0 -14 329 -336 337 -329 7 8 -315 337 -329 337 -5 0 -8
-3 -8 -8z"/>
<path d="M4740 7414 c-114 -8 -392 -65 -414 -86 -6 -4 -16 -8 -24 -8 -39 0
-346 -157 -407 -207 -5 -5 -25 -20 -44 -33 -19 -14 -65 -54 -103 -90 -39 -36
-77 -65 -86 -65 -11 0 -19 13 -25 38 -16 65 -80 61 -194 -12 -47 -31 -62 -47
-65 -68 -2 -18 -11 -29 -28 -34 -96 -27 -179 -55 -200 -66 -14 -7 -30 -13 -37
-13 -6 0 -13 -3 -15 -7 -1 -5 -25 -19 -52 -33 -26 -14 -56 -35 -66 -48 -30
-37 -58 -140 -69 -251 -16 -149 -14 -476 2 -489 6 -5 38 -13 70 -16 39 -5 57
-12 57 -22 0 -9 -12 -14 -37 -15 -181 -3 -663 -35 -738 -48 -27 -5 -67 -12
-89 -16 -21 -3 -36 -8 -34 -10 10 -10 217 -35 373 -44 698 -44 1322 -56 2885
-56 1396 0 2020 10 2620 40 338 18 651 48 637 62 -15 15 -329 47 -575 60 -114
5 -132 8 -130 22 2 12 23 19 81 27 62 9 84 16 104 36 37 37 62 143 63 260 0
104 1 102 -67 156 l-22 17 11 195 c10 168 9 208 -5 289 -25 152 -64 176 -277
173 -117 -1 -177 6 -225 28 -11 5 -54 18 -95 30 -41 12 -86 26 -100 31 -14 4
-45 14 -70 20 -25 6 -81 20 -125 30 -44 11 -107 27 -140 35 -336 83 -616 129
-1015 165 -184 17 -321 21 -750 23 -289 2 -550 2 -580 0z m387 -49 c76 -8 158
-19 183 -25 25 -5 70 -14 100 -20 30 -5 84 -16 120 -24 61 -14 91 -21 244 -60
33 -8 71 -19 85 -25 14 -5 60 -19 101 -32 41 -12 80 -25 86 -30 13 -11 84 -19
669 -75 88 -8 225 -17 305 -20 l145 -5 -80 27 c-44 15 -89 30 -100 35 -11 4
-54 17 -95 29 -41 11 -88 25 -105 29 -37 12 -176 44 -275 65 -212 45 -339 62
-694 97 -119 11 -156 22 -113 33 25 6 495 -11 507 -19 3 -2 53 -8 110 -15 58
-6 125 -15 150 -20 25 -5 77 -14 115 -20 197 -32 495 -96 710 -155 33 -9 85
-22 115 -30 119 -30 146 -37 165 -45 57 -23 173 -42 227 -36 73 7 208 -10 227
-29 8 -8 13 -16 10 -18 -2 -2 -213 0 -469 4 -406 6 -675 18 -760 34 -82 15
-453 37 -560 33 -182 -7 -245 -39 -331 -167 l-51 -76 7 45 c10 61 29 104 66
151 17 22 29 42 26 45 -9 9 -273 82 -391 109 -254 56 -552 95 -741 95 l-111 0
4 -102 c6 -171 -35 -299 -154 -479 -86 -130 -221 -266 -353 -354 -104 -69
-239 -135 -278 -135 -36 0 -18 23 40 50 123 58 213 122 312 224 69 72 148 175
162 212 3 10 9 21 12 24 6 4 50 94 72 145 41 95 59 223 40 290 -23 88 -104
123 -236 104 -38 -6 -79 -14 -90 -19 -11 -5 -51 -21 -90 -36 -38 -15 -72 -30
-75 -34 -3 -3 -34 -24 -70 -45 -68 -40 -124 -81 -175 -126 -66 -59 -105 -97
-105 -100 0 -3 45 -1 100 2 55 4 188 10 296 14 217 9 202 13 179 -50 -4 -11 3
-4 15 15 12 19 23 36 24 37 0 0 27 4 59 8 53 7 57 6 57 -13 0 -36 -133 -129
-170 -119 -12 3 -20 0 -20 -8 0 -7 -6 -18 -14 -24 -12 -10 -17 -8 -26 8 -10
20 -19 21 -223 21 -117 0 -276 -3 -354 -7 l-143 -6 -20 -40 c-12 -21 -27 -46
-35 -54 -13 -13 -15 -9 -15 26 0 23 5 41 10 41 6 0 10 5 10 10 0 13 -63 13
-172 -1 l-89 -12 24 -26 c28 -30 44 -71 28 -71 -6 0 -11 5 -11 10 0 6 -5 10
-12 10 -6 0 -21 8 -32 19 -27 24 -79 41 -105 34 -16 -4 -21 -1 -21 13 0 18 16
28 105 65 87 37 210 66 353 83 62 8 120 20 129 28 9 7 51 47 94 88 86 83 89
85 139 120 19 14 37 27 40 30 15 15 71 50 80 50 5 0 10 4 10 8 0 5 42 28 93
51 122 57 121 57 202 79 245 68 519 88 802 57z m-652 -304 c-4 -17 -11 -31
-16 -31 -5 0 -9 -9 -9 -20 0 -16 7 -20 31 -20 27 0 29 -2 15 -15 -8 -8 -24
-15 -34 -15 -11 0 -22 -4 -24 -10 -5 -16 -98 -25 -98 -10 0 13 78 111 113 143
25 22 31 17 22 -22z m623 -64 c-2 -15 11 -36 44 -68 57 -57 119 -183 126 -254
l5 -50 -22 27 c-11 14 -21 31 -21 36 0 14 -74 107 -114 143 -56 52 -132 83
-200 82 -60 0 -93 -11 -166 -53 -31 -18 -35 -19 -38 -4 -2 9 16 36 40 61 73
75 140 101 266 102 81 1 83 0 80 -22z m-1498 -22 c0 -8 -7 -15 -16 -15 -29 0
-94 -53 -94 -77 0 -20 -5 -23 -35 -23 -45 0 -47 26 -5 63 63 57 150 87 150 52z
m1423 -293 c38 -37 64 -78 96 -152 55 -126 52 -434 -4 -557 -8 -17 -15 -36
-15 -42 0 -6 -4 -11 -10 -11 -5 0 -10 -6 -10 -14 0 -7 -18 -34 -41 -59 -117
-134 -260 -60 -345 178 -15 41 -18 83 -18 225 -1 158 1 182 23 250 30 92 79
171 129 205 32 23 45 26 95 22 52 -3 62 -7 100 -45z m1903 6 c-3 -18 -10 -35
-15 -38 -5 -3 -13 -19 -17 -35 -4 -17 -15 -46 -26 -65 -25 -47 -23 -56 14 -74
27 -14 89 -16 451 -16 399 0 419 1 405 18 -20 24 -78 129 -78 143 0 6 -7 17
-15 25 -22 23 -18 44 8 44 18 0 41 -24 99 -104 l76 -104 79 -3 c88 -4 103 -13
122 -71 9 -27 22 -41 54 -57 23 -11 48 -24 55 -29 21 -14 26 -156 8 -222 l-15
-55 0 83 -1 83 -42 18 -43 18 -6 -87 c-3 -47 -9 -91 -12 -97 -12 -19 -76 -35
-111 -29 -54 10 -66 33 -73 136 -6 87 -8 92 -32 103 -18 8 -155 11 -446 12
l-420 0 -3 -100 c-1 -55 -8 -111 -14 -123 -17 -33 -59 -52 -113 -52 -57 0 -80
12 -100 50 -11 20 -23 30 -39 30 -28 0 -36 28 -36 126 0 62 -1 64 -22 59 -13
-3 -57 -9 -98 -14 -41 -4 -174 -21 -295 -36 l-220 -28 -32 -33 c-18 -18 -33
-36 -33 -40 0 -9 -44 -98 -51 -104 -4 -3 -10 -20 -14 -37 -8 -37 -42 -69 -86
-78 -37 -8 -48 0 -31 23 7 9 18 28 24 42 7 14 15 27 18 30 3 3 23 40 44 83 76
154 125 174 526 221 74 9 165 21 202 28 64 10 67 12 72 44 8 41 57 94 87 94
12 0 19 3 15 7 -11 11 -104 3 -141 -13 -62 -26 -107 -14 -72 19 18 18 182 127
191 127 6 0 16 7 49 36 7 5 21 14 32 19 16 7 8 10 -35 15 l-55 6 60 7 c33 5
76 12 95 17 61 14 63 13 56 -22z m-3728 -149 c65 -63 87 -143 86 -314 0 -134
-11 -190 -51 -253 -21 -33 -32 -43 -61 -59 -34 -20 -59 -15 -97 18 -50 44 -73
97 -91 212 -14 90 -14 107 0 192 19 111 45 174 87 209 43 36 86 35 127 -5z
m3386 -125 c9 -3 16 -12 16 -20 0 -10 -14 -14 -50 -14 -27 0 -71 -5 -97 -10
-26 -6 -88 -14 -138 -20 -49 -5 -126 -14 -171 -20 -60 -9 -92 -9 -123 0 -67
18 -52 37 37 44 42 4 113 12 157 18 44 5 136 14 205 18 69 4 130 8 137 8 6 1
18 -1 27 -4z"/>
<path d="M4565 7265 c17 -9 43 -34 58 -57 18 -28 27 -36 27 -23 0 23 -75 95
-98 95 -10 0 -5 -6 13 -15z"/>
<path d="M4652 7140 c0 -14 2 -19 5 -12 2 6 2 18 0 25 -3 6 -5 1 -5 -13z"/>
<path d="M4881 6639 c-14 -5 -21 -15 -18 -23 3 -8 11 -43 18 -77 7 -35 18 -72
24 -82 11 -16 14 -12 25 35 7 29 16 58 20 63 4 6 10 25 13 43 6 28 3 34 -19
42 -30 12 -32 12 -63 -1z"/>
<path d="M4786 6540 l-27 -49 28 -43 c15 -24 32 -52 38 -63 6 -11 17 -20 25
-20 9 0 14 8 13 20 -4 47 -37 205 -43 205 -4 0 -19 -22 -34 -50z"/>
<path d="M4993 6553 c-6 -21 -15 -56 -18 -78 -4 -22 -12 -48 -17 -58 -5 -10
-6 -32 -3 -48 l7 -30 19 25 c10 13 19 29 19 35 0 6 3 11 8 11 4 0 18 20 32 45
l24 44 -23 46 c-12 25 -25 45 -29 45 -4 0 -12 -17 -19 -37z"/>
<path d="M5076 6428 c-5 -16 -12 -28 -17 -28 -5 0 -9 -6 -9 -14 0 -7 -9 -25
-20 -39 -34 -43 -27 -62 29 -73 l48 -10 -4 46 c-3 25 -8 68 -12 95 -7 45 -9
47 -15 23z"/>
<path d="M4737 6404 c-7 -26 -20 -154 -15 -154 17 0 88 43 88 53 0 6 -16 36
-34 66 -27 43 -35 50 -39 35z"/>
<path d="M4990 6204 c-9 -21 -7 -31 7 -48 34 -39 84 -88 88 -84 2 2 5 32 7 68
l3 64 -35 6 c-20 3 -41 10 -48 14 -8 5 -16 -2 -22 -20z"/>
<path d="M4764 6200 c-34 -13 -37 -26 -23 -96 13 -65 22 -78 33 -46 3 9 17 37
31 61 39 69 20 106 -41 81z"/>
<path d="M4985 6024 c4 -43 8 -89 9 -101 l1 -23 16 21 c8 11 24 36 34 55 l18
34 -43 46 -43 47 8 -79z"/>
<path d="M4833 6073 c4 -3 -4 -20 -16 -37 -37 -50 -38 -61 -5 -105 16 -23 32
-41 34 -41 2 0 4 43 4 95 0 66 -4 95 -12 95 -6 0 -8 -3 -5 -7z"/>
<path d="M4900 6068 c-1 -7 -3 -55 -6 -105 l-6 -93 36 0 c40 0 42 5 26 73 -5
23 -12 63 -15 90 -4 31 -11 47 -21 47 -8 0 -14 -6 -14 -12z"/>
<path d="M6788 6433 c7 -3 16 -2 19 1 4 3 -2 6 -13 5 -11 0 -14 -3 -6 -6z"/>
<path d="M7840 6415 l0 -25 -454 0 -453 0 5 -25 4 -25 454 0 454 0 0 34 c0 19
7 42 16 50 14 15 14 16 -5 16 -16 0 -21 -6 -21 -25z"/>
<path d="M6740 6410 c-17 -17 -20 -33 -20 -125 0 -63 4 -105 10 -105 6 0 10 8
10 18 0 20 49 42 93 42 40 0 34 -27 -8 -34 -33 -7 -35 -9 -35 -47 0 -22 5 -49
10 -60 9 -17 7 -19 -17 -19 -26 -1 -26 -2 -9 -12 31 -18 76 -11 100 14 19 21
21 34 21 154 0 127 -1 133 -24 153 -29 25 -26 25 -56 5 -41 -27 -26 -104 21
-104 8 0 14 -7 14 -16 0 -14 -7 -15 -42 -10 -23 4 -48 12 -55 18 -18 15 -16
99 3 126 19 27 11 29 -16 2z"/>
<path d="M7960 6405 c0 -8 -4 -15 -9 -15 -16 0 -32 -60 -20 -81 5 -10 14 -19
19 -19 6 0 10 -7 10 -16 0 -13 -8 -15 -35 -12 -29 3 -35 1 -35 -14 0 -16 6
-17 40 -12 32 5 40 4 40 -9 0 -9 -9 -19 -21 -22 -18 -6 -20 -13 -17 -56 2 -41
0 -49 -14 -49 -12 0 -15 -5 -11 -16 4 -10 16 -14 36 -12 22 2 35 12 49 38 16
30 19 52 16 156 -2 97 -6 124 -20 137 -21 21 -28 21 -28 2z"/>
<path d="M8040 6317 c0 -14 68 -43 77 -33 3 3 -6 8 -21 12 -14 3 -26 10 -26
14 0 4 -7 10 -15 14 -8 3 -15 0 -15 -7z"/>
<path d="M3109 6493 c-3 -21 4 -56 16 -79 15 -29 18 -24 31 49 6 35 5 37 -20
37 -14 0 -26 -3 -27 -7z"/>
<path d="M3056 6429 c-14 -28 -13 -59 3 -59 3 0 12 -14 20 -31 19 -43 22 -32
10 37 -6 32 -11 65 -11 72 -2 18 -5 15 -22 -19z"/>
<path d="M3176 6389 c-9 -39 -15 -74 -12 -77 4 -3 7 -3 9 -1 22 37 47 91 47
101 0 7 -7 21 -14 30 -11 15 -15 9 -30 -53z"/>
<path d="M3218 6314 c-24 -47 -23 -61 7 -66 23 -5 25 -2 24 31 -1 62 -11 74
-31 35z"/>
<path d="M3022 6290 c-3 -53 -3 -53 22 -44 21 8 20 43 -2 71 -17 22 -17 22
-20 -27z"/>
<path d="M3190 6189 c0 -12 11 -34 24 -49 l24 -29 6 41 c8 47 9 43 -26 52 -24
5 -28 3 -28 -15z"/>
<path d="M3029 6188 c-2 -24 3 -73 8 -82 7 -11 33 49 33 75 0 21 -39 27 -41 7z"/>
<path d="M3075 6083 c-3 -15 -10 -30 -14 -33 -5 -3 0 -18 10 -35 l19 -30 0 63
c0 67 -4 77 -15 35z"/>
<path d="M3131 6053 c-1 -35 -1 -66 -2 -70 0 -4 4 -9 10 -11 13 -4 14 93 1
123 -6 14 -9 2 -9 -42z"/>
<path d="M3186 6065 c3 -27 8 -51 9 -53 1 -1 8 11 15 28 12 29 11 33 -9 53
l-22 22 7 -50z"/>
<path d="M2850 5580 c0 -5 9 -32 20 -60 18 -47 20 -74 20 -346 0 -289 0 -296
-24 -354 l-25 -60 251 0 250 0 -5 23 c-3 12 -9 50 -13 85 -4 34 -11 65 -15 68
-5 3 -34 -4 -65 -15 -33 -13 -79 -21 -114 -21 l-60 0 0 278 c0 274 0 280 25
340 14 34 25 64 25 67 0 3 -61 5 -135 5 -80 0 -135 -4 -135 -10z"/>
<path d="M3410 5587 c0 -2 11 -31 25 -65 25 -61 25 -65 25 -362 0 -333 2 -344
63 -377 27 -15 57 -18 182 -18 164 0 191 7 229 58 20 27 21 44 26 350 5 305 6
324 27 370 l22 47 -139 0 c-77 0 -140 -2 -140 -5 0 -3 11 -33 25 -67 25 -60
25 -67 25 -327 0 -146 -4 -272 -9 -279 -5 -9 -26 -12 -67 -10 l-59 3 0 290 c0
278 1 292 22 343 l23 52 -140 0 c-77 0 -140 -1 -140 -3z"/>
<path d="M4310 5585 c0 -3 11 -32 25 -65 25 -58 25 -64 25 -327 0 -147 -4
-274 -9 -281 -5 -9 -25 -12 -57 -10 -47 3 -49 4 -52 35 -2 21 6 46 27 79 16
27 29 50 27 51 -2 2 -199 33 -211 33 -3 0 -5 -54 -5 -120 0 -197 19 -215 230
-215 116 0 139 3 167 20 61 36 63 51 63 384 0 253 3 308 16 339 9 20 20 47 25
60 l9 22 -140 0 c-77 0 -140 -2 -140 -5z"/>
<path d="M4800 5544 c11 -25 20 -53 20 -62 0 -9 -31 -152 -69 -318 -50 -219
-76 -313 -95 -346 l-26 -45 46 -7 c65 -8 214 -8 214 2 -1 4 -9 22 -18 40 -15
28 -16 42 -8 92 l10 60 83 0 c79 0 83 -1 89 -25 11 -46 8 -100 -9 -137 l-17
-38 145 0 144 0 -31 53 c-25 43 -43 107 -100 362 -69 309 -69 310 -54 363 l15
52 -179 0 -179 0 19 -46z m194 -294 c35 -183 38 -170 -34 -170 -33 0 -60 4
-60 9 0 8 45 235 55 280 3 13 8 22 10 20 2 -2 15 -65 29 -139z"/>
<path d="M5350 5586 c0 -2 11 -29 25 -60 25 -56 25 -59 25 -345 0 -284 0 -288
-25 -349 -14 -34 -25 -64 -25 -67 0 -3 59 -5 130 -5 72 0 130 2 130 5 0 3 -11
33 -25 67 -23 57 -25 74 -25 220 0 87 3 158 8 158 4 0 35 -71 70 -158 54 -138
62 -165 62 -225 l0 -67 130 0 c72 0 130 2 130 4 0 2 -11 34 -25 70 -25 65 -25
72 -25 351 0 282 0 285 25 341 14 31 25 58 25 60 0 2 -58 4 -130 4 -71 0 -130
-2 -130 -5 0 -3 11 -33 25 -67 23 -57 25 -74 25 -220 0 -87 -3 -158 -7 -158
-5 0 -36 71 -70 158 -55 138 -63 165 -63 225 l0 67 -130 0 c-71 0 -130 -2
-130 -4z"/>
<path d="M6130 5562 c-57 -28 -70 -67 -70 -209 l0 -123 85 0 85 0 0 108 c0 59
4 113 9 120 5 9 27 12 72 10 l64 -3 3 -38 c2 -26 -3 -46 -18 -68 -12 -16 -21
-31 -19 -33 2 -2 40 -9 84 -15 44 -7 88 -15 98 -17 15 -5 17 4 17 99 0 115
-11 141 -70 172 -45 23 -293 21 -340 -3z"/>
<path d="M6780 5575 c0 -2 5 -16 12 -30 l11 -25 144 0 143 0 10 26 c6 14 10
27 10 30 0 2 -74 4 -165 4 -91 0 -165 -2 -165 -5z"/>
<path d="M7350 5575 c0 -2 9 -27 20 -55 18 -47 20 -74 20 -345 0 -271 -2 -298
-20 -345 -11 -28 -20 -53 -20 -55 0 -3 56 -5 125 -5 69 0 125 2 125 4 0 2 -9
25 -20 51 -16 38 -20 69 -20 161 0 113 0 114 23 114 21 0 29 -14 65 -106 33
-82 42 -118 42 -165 l0 -59 121 0 c93 0 119 3 113 13 -4 6 -21 31 -37 55 -31
46 -107 225 -107 251 0 9 15 23 33 31 55 26 67 66 67 220 0 109 -3 142 -18
170 -25 51 -71 70 -164 70 l-78 0 0 -59 0 -60 43 -3 42 -3 3 -109 c1 -60 -1
-113 -5 -117 -4 -4 -41 -10 -80 -14 l-73 -7 0 186 0 186 -100 0 c-55 0 -100
-2 -100 -5z"/>
<path d="M6806 5443 c-3 -10 -34 -147 -70 -304 -39 -173 -73 -300 -85 -320
-12 -19 -21 -37 -21 -41 0 -5 52 -8 115 -8 63 0 115 2 115 5 0 4 -7 19 -15 36
-13 25 -14 39 -4 89 l12 60 88 0 c96 0 91 4 103 -72 4 -24 1 -50 -9 -74 -8
-20 -15 -38 -15 -40 0 -2 56 -4 125 -4 69 0 125 3 125 6 0 4 -10 23 -22 43
-15 24 -44 133 -89 336 l-66 300 -141 3 c-127 2 -141 1 -146 -15z m159 -85
c15 -64 45 -236 45 -255 0 -22 -4 -23 -65 -23 -44 0 -65 4 -65 12 0 6 12 74
27 150 18 90 32 138 40 138 7 0 15 -10 18 -22z"/>
<path d="M6062 4988 c4 -152 13 -176 79 -202 52 -21 274 -22 322 -2 62 26 72
47 75 162 4 119 17 109 -116 91 l-84 -12 22 -27 c16 -21 20 -39 18 -70 l-3
-43 -58 -3 c-84 -4 -87 0 -87 129 l0 109 -86 0 -86 0 4 -132z"/>
<path d="M3402 4593 c-1 -16 -12 -70 -25 -120 l-23 -93 26 0 c22 0 26 4 25 28
0 23 4 27 32 30 24 2 33 -1 38 -17 3 -12 3 -25 0 -31 -4 -6 7 -10 25 -10 27 0
31 3 25 18 -11 29 -45 181 -45 202 0 16 -7 20 -38 20 -36 0 -39 -2 -40 -27z
m52 -65 c11 -42 7 -58 -14 -58 -22 0 -23 3 -14 49 8 36 19 40 28 9z"/>
<path d="M3578 4513 c2 -59 8 -113 14 -120 14 -17 102 -17 116 0 6 6 12 60 14
120 l3 107 -25 0 -25 0 3 -106 4 -106 -29 4 -28 3 0 103 0 102 -25 0 -25 0 3
-107z"/>
<path d="M3776 4605 c4 -8 17 -15 31 -15 l25 0 -4 -105 -4 -105 26 0 25 0 -3
105 -3 105 25 0 c16 0 26 6 26 15 0 12 -15 15 -75 15 -62 0 -73 -2 -69 -15z"/>
<path d="M3977 4614 c-4 -4 -7 -56 -7 -115 0 -118 0 -119 68 -119 61 0 63 5
60 126 l-3 109 -55 3 c-31 2 -59 0 -63 -4z m83 -114 c0 -89 0 -90 -25 -90 -25
0 -25 1 -25 90 0 89 0 90 25 90 25 0 25 -1 25 -90z"/>
<path d="M4255 4500 l0 -120 26 0 c26 0 27 2 25 53 l-1 52 34 3 34 3 -5 -55
c-5 -55 -4 -56 21 -56 l26 0 0 120 0 120 -26 0 c-25 0 -26 -1 -21 -56 l5 -55
-34 3 c-34 3 -34 3 -34 56 1 49 -1 52 -25 52 l-25 0 0 -120z"/>
<path d="M4510 4600 c0 -21 -34 -173 -45 -202 -6 -14 -2 -18 19 -18 22 0 26 4
26 30 0 28 3 30 35 30 32 0 35 -2 35 -30 0 -27 3 -30 31 -30 20 0 28 4 23 11
-10 17 -43 170 -44 202 0 25 -3 27 -40 27 -33 0 -40 -3 -40 -20z m55 -92 c7
-36 6 -38 -18 -38 -24 0 -24 2 -16 38 5 20 9 41 9 47 0 22 19 -13 25 -47z"/>
<path d="M4685 4500 l0 -120 25 0 25 0 0 120 0 120 -25 0 -25 0 0 -120z"/>
<path d="M4795 4500 l0 -120 63 0 c55 0 63 2 60 17 -3 14 -11 17 -41 15 l-38
-4 3 106 3 106 -25 0 -25 0 0 -120z"/>
<path d="M5065 4500 l0 -120 26 0 c25 0 26 2 21 50 -3 39 -1 50 10 50 14 0 38
-52 38 -83 0 -12 9 -17 30 -17 l30 0 -20 40 c-24 47 -25 66 -5 74 19 7 21 96
3 114 -7 7 -39 12 -72 12 l-61 0 0 -120z m103 53 c-3 -33 -7 -38 -30 -41 -27
-3 -28 -1 -28 37 0 39 1 41 31 41 29 0 30 -2 27 -37z"/>
<path d="M5265 4500 l0 -120 68 0 c59 0 67 2 67 19 0 16 -6 18 -46 13 l-45 -5
3 44 c3 43 4 44 36 43 24 -2 32 2 32 15 0 14 -7 16 -35 13 -34 -4 -35 -4 -35
33 l0 37 45 -4 c38 -3 45 0 45 14 0 15 -10 18 -67 18 l-68 0 0 -120z"/>
<path d="M5455 4500 l0 -120 26 0 c25 0 26 2 21 50 l-5 50 40 0 c51 0 63 14
63 70 0 25 -5 51 -12 58 -7 7 -39 12 -72 12 l-61 0 0 -120z m103 57 c4 -33
-13 -57 -39 -57 -16 0 -19 8 -19 46 0 44 1 45 28 42 21 -2 28 -9 30 -31z"/>
<path d="M5686 4606 c4 -11 -23 -146 -42 -208 -4 -14 0 -18 20 -18 22 0 26 4
26 30 0 28 3 30 35 30 32 0 35 -2 35 -30 0 -27 3 -30 30 -30 27 0 29 2 20 23
-15 33 -49 200 -44 209 3 4 -15 8 -40 8 -35 0 -44 -3 -40 -14z m58 -98 c7 -36
5 -38 -19 -38 -20 0 -25 4 -21 18 3 9 8 30 12 45 8 35 19 25 28 -25z"/>
<path d="M5865 4500 l0 -120 25 0 25 0 0 120 0 120 -25 0 -25 0 0 -120z"/>
<path d="M5975 4500 l0 -120 25 0 c24 0 25 2 21 51 -4 66 17 64 39 -4 13 -40
19 -47 41 -47 l26 0 -23 47 c-22 47 -22 48 -3 66 21 20 26 76 9 108 -9 16 -22
19 -73 19 l-62 0 0 -120z m95 50 c0 -36 -2 -40 -25 -40 -22 0 -25 4 -25 40 0
36 3 40 25 40 23 0 25 -4 25 -40z"/>
<path d="M6275 4500 l0 -120 25 0 c24 0 25 2 22 50 l-4 50 39 0 c51 0 63 14
63 70 0 25 -5 51 -12 58 -7 7 -39 12 -72 12 l-61 0 0 -120z m103 57 c4 -33
-13 -57 -39 -57 -16 0 -19 8 -19 46 0 44 1 45 28 42 21 -2 28 -9 30 -31z"/>
<path d="M6475 4500 l0 -120 60 0 c33 0 66 4 73 8 9 6 12 37 10 118 l-3 109
-70 3 -70 3 0 -121z m103 3 l3 -93 -31 0 -30 0 0 96 0 95 28 -3 27 -3 3 -92z"/>
<path d="M6675 4500 l0 -120 26 0 c25 0 26 2 21 50 -4 40 -2 50 11 50 15 0 37
-48 37 -81 0 -14 7 -19 29 -19 l29 0 -21 50 c-20 47 -20 51 -3 63 13 10 17 24
14 67 l-3 55 -70 3 -70 3 0 -121z m105 50 c0 -38 -2 -40 -30 -40 -28 0 -30 2
-30 40 0 38 2 40 30 40 28 0 30 -2 30 -40z"/>
<path d="M6975 4500 l0 -120 63 0 c54 0 62 2 62 19 0 17 -5 18 -41 14 l-41 -6
4 107 3 106 -25 0 -25 0 0 -120z"/>
<path d="M7158 4521 c3 -62 0 -106 -7 -120 -11 -20 -10 -21 54 -21 58 0 65 2
65 19 0 17 -5 19 -36 14 l-35 -6 3 107 3 106 -25 0 -26 0 4 -99z"/>
<path d="M7332 4608 c-8 -8 -12 -47 -12 -108 0 -61 4 -100 12 -108 18 -18 94
-15 112 4 22 21 22 68 0 60 -9 -3 -19 -6 -24 -6 -4 0 -6 -9 -3 -20 5 -17 0
-20 -26 -20 l-32 0 3 93 c3 91 3 92 28 92 19 0 25 -5 24 -22 0 -15 7 -23 23
-26 19 -4 23 0 23 22 0 15 -5 32 -12 39 -16 16 -100 16 -116 0z"/>
<path d="M3821 4235 c3 -2 47 -12 99 -21 52 -9 129 -22 170 -29 41 -7 127 -22
190 -33 190 -34 174 -27 220 -101 22 -36 65 -104 95 -151 30 -47 58 -92 62
-100 4 -8 21 -35 37 -60 45 -67 55 -83 63 -100 4 -8 9 -17 13 -20 4 -3 27 -38
51 -78 24 -40 51 -84 59 -97 13 -20 53 -84 93 -150 7 -11 15 -22 18 -25 6 -5
83 -131 107 -176 7 -13 17 -24 23 -24 5 0 9 -6 9 -13 0 -11 22 -48 77 -133 12
-17 51 -81 86 -139 7 -11 15 -22 18 -25 3 -3 23 -35 44 -72 36 -62 40 -66 56
-52 9 8 23 30 30 47 7 18 18 37 24 44 31 36 51 70 71 116 9 20 20 37 25 37 5
0 9 6 9 14 0 8 4 16 8 18 5 2 23 28 40 58 45 75 56 94 62 100 10 10 70 101 70
106 0 5 52 87 61 94 3 3 9 12 12 20 4 8 18 33 32 55 14 22 28 47 32 55 4 8 9
17 12 20 11 9 65 94 81 125 14 29 22 41 46 68 5 7 13 19 17 27 11 21 26 46 77
125 24 39 49 78 55 87 5 9 30 49 55 89 25 39 50 79 55 88 61 100 38 88 235
123 63 11 149 26 190 33 41 7 115 20 164 29 49 8 91 18 94 21 3 3 -180 5 -405
5 l-411 0 -43 -67 c-58 -90 -66 -104 -81 -133 -7 -14 -15 -27 -18 -30 -3 -3
-17 -23 -30 -45 -13 -22 -26 -42 -29 -45 -4 -3 -13 -18 -21 -35 -8 -16 -17
-32 -20 -35 -6 -6 -58 -85 -80 -120 -8 -14 -37 -62 -63 -105 -27 -44 -54 -89
-60 -100 -7 -11 -14 -22 -17 -25 -10 -10 -70 -101 -70 -106 0 -3 -22 -39 -50
-81 -27 -42 -50 -79 -50 -83 0 -4 -9 -17 -20 -30 -11 -13 -20 -29 -20 -37 0
-7 -3 -13 -8 -13 -4 0 -18 -20 -32 -45 -14 -25 -32 -45 -40 -45 -8 0 -26 20
-40 45 -14 25 -28 45 -31 45 -4 0 -9 8 -13 18 -3 9 -33 60 -66 112 -33 52 -64
102 -67 110 -4 8 -9 17 -13 20 -3 3 -17 23 -30 45 -13 22 -26 42 -29 45 -4 3
-11 14 -18 25 -69 114 -97 159 -103 165 -3 3 -13 19 -21 35 -8 17 -36 63 -62
103 -26 40 -47 76 -47 81 0 5 -3 11 -8 13 -6 3 -98 144 -112 173 -3 5 -25 40
-48 78 l-44 67 -416 0 c-228 0 -413 -2 -411 -5z"/>
<path d="M4930 4231 c0 -5 15 -31 33 -57 19 -27 53 -80 76 -119 23 -38 94
-151 156 -250 63 -99 133 -213 157 -252 24 -40 45 -73 48 -73 3 0 31 44 63 98
32 53 80 131 107 172 27 41 53 82 57 90 3 8 26 44 49 80 39 61 138 218 176
278 9 15 17 30 17 35 1 4 -210 7 -469 7 -267 0 -470 -4 -470 -9z m497 -106
c18 -52 19 -53 83 -63 l55 -8 -44 -41 c-42 -39 -43 -42 -32 -73 25 -73 5 -89
-55 -44 l-34 26 -34 -26 c-60 -45 -78 -32 -56 43 9 32 7 36 -31 72 -44 41 -44
64 0 54 29 -6 81 9 81 24 0 22 32 82 42 79 6 -2 17 -22 25 -43z"/>
</g>
</svg>
